# Blender v2.81 (sub 16) OBJ File: 'Hightlight Arrow.blend'
# www.blender.org
mtllib Hightlight Arrow.mtl
o Cylinder
v -2.402277 2.435336 -0.722098
v 2.425068 2.435337 -0.722098
v -2.476756 2.436078 -0.714762
v 2.499544 2.436351 -0.714762
v -2.548373 2.436792 -0.693036
v 2.571157 2.437326 -0.693036
v -2.614374 2.437449 -0.657755
v 2.637156 2.438225 -0.657755
v -2.672226 2.438026 -0.610276
v 2.695005 2.439012 -0.610276
v -2.719703 2.438499 -0.552422
v 2.742480 2.439659 -0.552422
v -2.754982 2.438850 -0.486416
v 2.777757 2.440139 -0.486416
v -2.776706 2.439067 -0.414796
v 2.799481 2.440435 -0.414796
v -2.784042 2.439140 -0.340314
v 2.806816 2.440535 -0.340314
v -2.776706 2.439067 -0.265832
v 2.799481 2.440435 -0.265832
v -2.754982 2.438850 -0.194212
v 2.777757 2.440139 -0.194212
v -2.719703 2.438499 -0.128207
v 2.742480 2.439659 -0.128207
v -2.672226 2.438026 -0.070353
v 2.695005 2.439012 -0.070353
v -2.614374 2.437449 -0.022873
v 2.637156 2.438225 -0.022873
v -2.548372 2.436792 0.012408
v 2.571157 2.437326 0.012408
v -2.476756 2.436078 0.034133
v 2.499544 2.436351 0.034133
v -2.402277 2.435336 0.041469
v 2.425068 2.435337 0.041469
v -2.327799 2.434594 0.034133
v 2.350593 2.434323 0.034133
v -2.256182 2.433881 0.012407
v 2.278980 2.433348 0.012407
v -2.190180 2.433223 -0.022873
v 2.212981 2.432449 -0.022873
v -2.132329 2.432647 -0.070353
v 2.155132 2.431661 -0.070353
v -2.084852 2.432173 -0.128207
v 2.107656 2.431015 -0.128207
v -2.049573 2.431822 -0.194212
v 2.072379 2.430535 -0.194212
v -2.027848 2.431605 -0.265832
v 2.050656 2.430239 -0.265832
v -2.020513 2.431532 -0.340315
v 2.043320 2.430139 -0.340315
v -2.027849 2.431606 -0.414797
v 2.050656 2.430239 -0.414797
v -2.049573 2.431822 -0.486417
v 2.072379 2.430535 -0.486417
v -2.084852 2.432173 -0.552422
v 2.107657 2.431015 -0.552422
v -2.132330 2.432647 -0.610276
v 2.155132 2.431661 -0.610276
v -2.190181 2.433223 -0.657756
v 2.212981 2.432449 -0.657756
v -2.256183 2.433881 -0.693036
v 2.278980 2.433348 -0.693036
v -2.327800 2.434594 -0.714762
v 2.350594 2.434323 -0.714762
v 0.011396 0.310867 -0.722098
v 0.011396 0.236384 -0.714762
v 0.011396 0.164764 -0.693036
v 0.011396 0.098759 -0.657755
v 0.011396 0.040905 -0.610276
v 0.011396 -0.006575 -0.552422
v 0.011396 -0.041855 -0.486416
v 0.011396 -0.063581 -0.414797
v 0.011396 -0.070917 -0.340314
v 0.011396 -0.063581 -0.265832
v 0.011396 -0.041855 -0.194212
v 0.011396 -0.006575 -0.128207
v 0.011396 0.040905 -0.070353
v 0.011396 0.098759 -0.022873
v 0.011396 0.164764 0.012408
v 0.011396 0.236384 0.034133
v 0.011396 0.310867 0.041469
v 0.011396 0.385349 0.034133
v 0.011396 0.456969 0.012407
v 0.011396 0.522974 -0.022873
v 0.011396 0.580828 -0.070353
v 0.011396 0.628308 -0.128207
v 0.011396 0.663588 -0.194212
v 0.011396 0.685314 -0.265832
v 0.011396 0.692650 -0.340315
v 0.011396 0.685314 -0.414797
v 0.011396 0.663588 -0.486417
v 0.011396 0.628308 -0.552422
v 0.011396 0.580828 -0.610276
v 0.011396 0.522974 -0.657756
v 0.011396 0.456968 -0.693036
v 0.011396 0.385348 -0.714762
vt 1.000000 0.750000
vt 1.000000 1.000000
vt 0.968750 1.000000
vt 0.968750 0.750000
vt 0.937500 1.000000
vt 0.937500 0.750000
vt 0.906250 1.000000
vt 0.906250 0.750000
vt 0.875000 1.000000
vt 0.875000 0.750000
vt 0.843750 1.000000
vt 0.843750 0.750000
vt 0.812500 1.000000
vt 0.812500 0.750000
vt 0.781250 1.000000
vt 0.781250 0.750000
vt 0.750000 1.000000
vt 0.750000 0.750000
vt 0.718750 1.000000
vt 0.718750 0.750000
vt 0.687500 1.000000
vt 0.687500 0.750000
vt 0.656250 1.000000
vt 0.656250 0.750000
vt 0.625000 1.000000
vt 0.625000 0.750000
vt 0.593750 1.000000
vt 0.593750 0.750000
vt 0.562500 1.000000
vt 0.562500 0.750000
vt 0.531250 1.000000
vt 0.531250 0.750000
vt 0.500000 1.000000
vt 0.500000 0.750000
vt 0.468750 1.000000
vt 0.468750 0.750000
vt 0.437500 1.000000
vt 0.437500 0.750000
vt 0.406250 1.000000
vt 0.406250 0.750000
vt 0.375000 1.000000
vt 0.375000 0.750000
vt 0.343750 1.000000
vt 0.343750 0.750000
vt 0.312500 1.000000
vt 0.312500 0.750000
vt 0.281250 1.000000
vt 0.281250 0.750000
vt 0.250000 1.000000
vt 0.250000 0.750000
vt 0.218750 1.000000
vt 0.218750 0.750000
vt 0.187500 1.000000
vt 0.187500 0.750000
vt 0.156250 1.000000
vt 0.156250 0.750000
vt 0.125000 1.000000
vt 0.125000 0.750000
vt 0.093750 1.000000
vt 0.093750 0.750000
vt 0.062500 1.000000
vt 0.062500 0.750000
vt 0.296822 0.485388
vt 0.250000 0.490000
vt 0.203179 0.485389
vt 0.158156 0.471731
vt 0.116663 0.449553
vt 0.080295 0.419706
vt 0.050447 0.383337
vt 0.028269 0.341844
vt 0.014612 0.296822
vt 0.010000 0.250000
vt 0.014611 0.203179
vt 0.028269 0.158156
vt 0.050447 0.116663
vt 0.080294 0.080294
vt 0.116663 0.050447
vt 0.158156 0.028269
vt 0.203178 0.014612
vt 0.250000 0.010000
vt 0.296822 0.014612
vt 0.341844 0.028269
vt 0.383337 0.050447
vt 0.419706 0.080294
vt 0.449553 0.116663
vt 0.471731 0.158156
vt 0.485388 0.203178
vt 0.490000 0.250000
vt 0.485388 0.296822
vt 0.471731 0.341844
vt 0.449553 0.383337
vt 0.419706 0.419706
vt 0.383337 0.449553
vt 0.341844 0.471731
vt 0.031250 1.000000
vt 0.031250 0.750000
vt 0.000000 1.000000
vt 0.000000 0.750000
vt 0.750000 0.490000
vt 0.796822 0.485388
vt 0.841844 0.471731
vt 0.883337 0.449553
vt 0.919706 0.419706
vt 0.949553 0.383337
vt 0.971731 0.341844
vt 0.985388 0.296822
vt 0.990000 0.250000
vt 0.985388 0.203178
vt 0.971731 0.158156
vt 0.949553 0.116663
vt 0.919706 0.080294
vt 0.883337 0.050447
vt 0.841844 0.028269
vt 0.796822 0.014612
vt 0.750000 0.010000
vt 0.703178 0.014612
vt 0.658156 0.028269
vt 0.616663 0.050447
vt 0.580294 0.080294
vt 0.550447 0.116663
vt 0.528269 0.158156
vt 0.514611 0.203179
vt 0.510000 0.250000
vt 0.514612 0.296822
vt 0.528269 0.341844
vt 0.550447 0.383337
vt 0.580295 0.419706
vt 0.616663 0.449553
vt 0.658156 0.471731
vt 0.703179 0.485389
vt 0.031250 0.500000
vt 0.000000 0.500000
vt 0.062500 0.500000
vt 0.093750 0.500000
vt 0.125000 0.500000
vt 0.156250 0.500000
vt 0.187500 0.500000
vt 0.218750 0.500000
vt 0.250000 0.500000
vt 0.281250 0.500000
vt 0.312500 0.500000
vt 0.343750 0.500000
vt 0.375000 0.500000
vt 0.406250 0.500000
vt 0.437500 0.500000
vt 0.468750 0.500000
vt 0.500000 0.500000
vt 0.531250 0.500000
vt 0.562500 0.500000
vt 0.593750 0.500000
vt 0.625000 0.500000
vt 0.656250 0.500000
vt 0.687500 0.500000
vt 0.718750 0.500000
vt 0.750000 0.500000
vt 0.781250 0.500000
vt 0.812500 0.500000
vt 0.843750 0.500000
vt 0.875000 0.500000
vt 0.906250 0.500000
vt 0.937500 0.500000
vt 0.968750 0.500000
vt 1.000000 0.500000
vn 0.0921 -0.1044 -0.9903
vn 0.2635 -0.2974 -0.9177
vn 0.4030 -0.4532 -0.7951
vn 0.5063 -0.5674 -0.6494
vn 0.5780 -0.6460 -0.4986
vn 0.6251 -0.6973 -0.3509
vn 0.6534 -0.7279 -0.2080
vn 0.6667 -0.7422 -0.0689
vn 0.6667 -0.7422 0.0689
vn 0.6534 -0.7279 0.2080
vn 0.6251 -0.6973 0.3509
vn 0.5780 -0.6460 0.4986
vn 0.5063 -0.5674 0.6494
vn 0.4030 -0.4532 0.7951
vn 0.2635 -0.2974 0.9177
vn 0.0921 -0.1044 0.9903
vn -0.0919 0.1046 0.9903
vn -0.2615 0.2993 0.9176
vn -0.3981 0.4579 0.7949
vn -0.4978 0.5753 0.6490
vn -0.5660 0.6569 0.4981
vn -0.6102 0.7106 0.3504
vn -0.6363 0.7429 0.2077
vn -0.6485 0.7581 0.0688
vn -0.6485 0.7581 -0.0688
vn -0.6363 0.7429 -0.2077
vn -0.6102 0.7106 -0.3504
vn -0.5660 0.6569 -0.4981
vn -0.4978 0.5753 -0.6490
vn -0.3981 0.4579 -0.7949
vn -0.0136 0.9999 0.0000
vn -0.2615 0.2993 -0.9176
vn -0.0919 0.1046 -0.9903
vn 0.0100 1.0000 0.0000
vn 0.0917 0.1044 -0.9903
vn 0.2611 0.2988 -0.9179
vn 0.3977 0.4572 -0.7955
vn 0.4975 0.5747 -0.6498
vn 0.5659 0.6564 -0.4989
vn 0.6102 0.7102 -0.3510
vn 0.6366 0.7426 -0.2081
vn 0.6488 0.7579 -0.0689
vn 0.6488 0.7579 0.0689
vn 0.6366 0.7426 0.2081
vn 0.6102 0.7102 0.3510
vn 0.5659 0.6564 0.4989
vn 0.4975 0.5747 0.6498
vn 0.3977 0.4572 0.7955
vn 0.2611 0.2988 0.9179
vn 0.0917 0.1044 0.9903
vn -0.0919 -0.1042 0.9903
vn -0.2630 -0.2969 0.9180
vn -0.4025 -0.4527 0.7957
vn -0.5058 -0.5670 0.6501
vn -0.5775 -0.6458 0.4993
vn -0.6247 -0.6973 0.3514
vn -0.6531 -0.7280 0.2084
vn -0.6665 -0.7423 0.0690
vn -0.6665 -0.7423 -0.0690
vn -0.6531 -0.7280 -0.2084
vn -0.6247 -0.6973 -0.3515
vn -0.5775 -0.6458 -0.4993
vn -0.5058 -0.5670 -0.6501
vn -0.4025 -0.4527 -0.7957
vn -0.2630 -0.2969 -0.9180
vn -0.0919 -0.1042 -0.9903
usemtl None
s off
f 65/1/1 2/2/1 4/3/1 66/4/1
f 66/4/2 4/3/2 6/5/2 67/6/2
f 67/6/3 6/5/3 8/7/3 68/8/3
f 68/8/4 8/7/4 10/9/4 69/10/4
f 69/10/5 10/9/5 12/11/5 70/12/5
f 70/12/6 12/11/6 14/13/6 71/14/6
f 71/14/7 14/13/7 16/15/7 72/16/7
f 72/16/8 16/15/8 18/17/8 73/18/8
f 73/18/9 18/17/9 20/19/9 74/20/9
f 74/20/10 20/19/10 22/21/10 75/22/10
f 75/22/11 22/21/11 24/23/11 76/24/11
f 76/24/12 24/23/12 26/25/12 77/26/12
f 77/26/13 26/25/13 28/27/13 78/28/13
f 78/28/14 28/27/14 30/29/14 79/30/14
f 79/30/15 30/29/15 32/31/15 80/32/15
f 80/32/16 32/31/16 34/33/16 81/34/16
f 81/34/17 34/33/17 36/35/17 82/36/17
f 82/36/18 36/35/18 38/37/18 83/38/18
f 83/38/19 38/37/19 40/39/19 84/40/19
f 84/40/20 40/39/20 42/41/20 85/42/20
f 85/42/21 42/41/21 44/43/21 86/44/21
f 86/44/22 44/43/22 46/45/22 87/46/22
f 87/46/23 46/45/23 48/47/23 88/48/23
f 88/48/24 48/47/24 50/49/24 89/50/24
f 89/50/25 50/49/25 52/51/25 90/52/25
f 90/52/26 52/51/26 54/53/26 91/54/26
f 91/54/27 54/53/27 56/55/27 92/56/27
f 92/56/28 56/55/28 58/57/28 93/58/28
f 93/58/29 58/57/29 60/59/29 94/60/29
f 94/60/30 60/59/30 62/61/30 95/62/30
f 4/63/31 2/64/31 64/65/31 62/66/31 60/67/31 58/68/31 56/69/31 54/70/31 52/71/31 50/72/31 48/73/31 46/74/31 44/75/31 42/76/31 40/77/31 38/78/31 36/79/31 34/80/31 32/81/31 30/82/31 28/83/31 26/84/31 24/85/31 22/86/31 20/87/31 18/88/31 16/89/31 14/90/31 12/91/31 10/92/31 8/93/31 6/94/31
f 95/62/32 62/61/32 64/95/32 96/96/32
f 96/96/33 64/95/33 2/97/33 65/98/33
f 1/99/34 3/100/34 5/101/34 7/102/34 9/103/34 11/104/34 13/105/34 15/106/34 17/107/34 19/108/34 21/109/34 23/110/34 25/111/34 27/112/34 29/113/34 31/114/34 33/115/34 35/116/34 37/117/34 39/118/34 41/119/34 43/120/34 45/121/34 47/122/34 49/123/34 51/124/34 53/125/34 55/126/34 57/127/34 59/128/34 61/129/34 63/130/34
f 63/131/35 96/96/35 65/98/35 1/132/35
f 61/133/36 95/62/36 96/96/36 63/131/36
f 59/134/37 94/60/37 95/62/37 61/133/37
f 57/135/38 93/58/38 94/60/38 59/134/38
f 55/136/39 92/56/39 93/58/39 57/135/39
f 53/137/40 91/54/40 92/56/40 55/136/40
f 51/138/41 90/52/41 91/54/41 53/137/41
f 49/139/42 89/50/42 90/52/42 51/138/42
f 47/140/43 88/48/43 89/50/43 49/139/43
f 45/141/44 87/46/44 88/48/44 47/140/44
f 43/142/45 86/44/45 87/46/45 45/141/45
f 41/143/46 85/42/46 86/44/46 43/142/46
f 39/144/47 84/40/47 85/42/47 41/143/47
f 37/145/48 83/38/48 84/40/48 39/144/48
f 35/146/49 82/36/49 83/38/49 37/145/49
f 33/147/50 81/34/50 82/36/50 35/146/50
f 31/148/51 80/32/51 81/34/51 33/147/51
f 29/149/52 79/30/52 80/32/52 31/148/52
f 27/150/53 78/28/53 79/30/53 29/149/53
f 25/151/54 77/26/54 78/28/54 27/150/54
f 23/152/55 76/24/55 77/26/55 25/151/55
f 21/153/56 75/22/56 76/24/56 23/152/56
f 19/154/57 74/20/57 75/22/57 21/153/57
f 17/155/58 73/18/58 74/20/58 19/154/58
f 15/156/59 72/16/59 73/18/59 17/155/59
f 13/157/60 71/14/60 72/16/60 15/156/60
f 11/158/61 70/12/61 71/14/61 13/157/61
f 9/159/62 69/10/62 70/12/62 11/158/62
f 7/160/63 68/8/63 69/10/63 9/159/63
f 5/161/64 67/6/64 68/8/64 7/160/64
f 3/162/65 66/4/65 67/6/65 5/161/65
f 1/163/66 65/1/66 66/4/66 3/162/66
